<?xml version="1.0" encoding="UTF-8" standalone="no"?>
<!-- Created with Inkscape (http://www.inkscape.org/) -->

<svg
   xmlns:dc="http://purl.org/dc/elements/1.1/"
   xmlns:cc="http://creativecommons.org/ns#"
   xmlns:rdf="http://www.w3.org/1999/02/22-rdf-syntax-ns#"
   xmlns:svg="http://www.w3.org/2000/svg"
   xmlns="http://www.w3.org/2000/svg"
   xmlns:sodipodi="http://sodipodi.sourceforge.net/DTD/sodipodi-0.dtd"
   xmlns:inkscape="http://www.inkscape.org/namespaces/inkscape"
   version="1.1"
   width="1300"
   height="625"
   id="svg2"
   xml:space="preserve"
   inkscape:version="0.48.4 r9939"
   sodipodi:docname="jumbotron_splash.svg"><sodipodi:namedview
     pagecolor="#ffffff"
     bordercolor="#666666"
     borderopacity="1"
     objecttolerance="10"
     gridtolerance="10"
     guidetolerance="10"
     inkscape:pageopacity="0"
     inkscape:pageshadow="2"
     inkscape:window-width="1440"
     inkscape:window-height="858"
     id="namedview44"
     showgrid="false"
     inkscape:zoom="0.27831723"
     inkscape:cx="1253.3679"
     inkscape:cy="88.752946"
     inkscape:window-x="1433"
     inkscape:window-y="-12"
     inkscape:window-maximized="1"
     inkscape:current-layer="svg2" /><metadata
     id="metadata8"><rdf:RDF><cc:Work
         rdf:about=""><dc:format>image/svg+xml</dc:format><dc:type
           rdf:resource="http://purl.org/dc/dcmitype/StillImage" /><dc:title /></cc:Work></rdf:RDF></metadata><defs
     id="defs6" /><g
     transform="matrix(1.25,0,0,-1.25,0,625)"
     id="g10"><g
       transform="scale(0.102249,0.102249)"
       id="g12"><path
         d="m 0,0 14670,0 0,4890 L 0,4890 0,0 z"
         id="path14"
         style="fill:#80ff71;fill-opacity:1;fill-rule:nonzero;stroke:none"
         inkscape:connector-curvature="0" /><path
         d="m 1312.26,4099.75 c 130.33,-18.32 202.43,470.51 322.33,416.19 119.86,-54.27 -199.92,-430.91 -100.23,-516.8 99.76,-85.85 424.7,286.37 496.2,175.88 71.5,-110.48 -401.17,-254.43 -363.7,-380.57 37.49,-126.18 512.1,11.28 512.51,-120.31 0.39,-131.62 -475.06,2.87 -511.73,-123.53 -36.67,-126.42 436.91,-267.35 366.09,-378.3 -70.78,-110.93 -398.09,259.23 -497.27,172.73 -99.19,-86.5 223,-461.1 103.46,-516.14 -119.55,-55.07 -194.73,433.3 -324.93,414.13 -130.23,-19.12 -61.69,-508.46 -192.02,-490.15 -130.337,18.32 70.44,469.82 -49.47,524.08 -119.879,54.33 -326.762,-394.36 -426.5,-308.51 -99.754,85.85 313.23,357.13 241.73,467.62 -71.503,110.49 -488.179,-155.11 -525.656,-28.96 -37.453,126.16 456.614,131.1 456.203,262.73 -0.418,131.61 -494.535,133.39 -457.82,259.79 36.652,126.38 454.992,-136.56 525.77,-25.61 70.816,110.92 -343.879,379.58 -244.692,466.08 99.188,86.5 308.945,-360.87 428.485,-305.84 119.52,55.08 -84.063,505.28 46.12,524.4 130.19,19.17 64.78,-470.59 195.12,-488.91"
         id="path16"
         style="fill:#2bff12;fill-opacity:1;fill-rule:nonzero;stroke:none"
         inkscape:connector-curvature="0" /><path
         d="m 1312.26,4099.75 c 130.33,-18.32 202.43,470.51 322.33,416.19 119.86,-54.27 -199.92,-430.91 -100.23,-516.8 99.76,-85.85 424.7,286.37 496.2,175.88 71.5,-110.48 -401.17,-254.43 -363.7,-380.57 37.49,-126.18 512.1,11.28 512.51,-120.31 0.39,-131.62 -475.06,2.87 -511.73,-123.53 -36.67,-126.42 436.91,-267.35 366.09,-378.3 -70.78,-110.93 -398.09,259.23 -497.27,172.73 -99.19,-86.5 223,-461.1 103.46,-516.14 -119.55,-55.07 -194.73,433.3 -324.93,414.13 -130.23,-19.12 -61.69,-508.46 -192.02,-490.15 -130.337,18.32 70.44,469.82 -49.47,524.08 -119.879,54.33 -326.762,-394.36 -426.5,-308.51 -99.754,85.85 313.23,357.13 241.73,467.62 -71.503,110.49 -488.179,-155.11 -525.656,-28.96 -37.453,126.16 456.614,131.1 456.203,262.73 -0.418,131.61 -494.535,133.39 -457.82,259.79 36.652,126.38 454.992,-136.56 525.77,-25.61 70.816,110.92 -343.879,379.58 -244.692,466.08 99.188,86.5 308.945,-360.87 428.485,-305.84 119.52,55.08 -84.063,505.28 46.12,524.4 130.19,19.17 64.78,-470.59 195.12,-488.91 z"
         id="path18"
         style="fill:none;stroke:#2bff12;stroke-width:14.85910034;stroke-linecap:butt;stroke-linejoin:miter;stroke-miterlimit:10;stroke-opacity:1;stroke-dasharray:none"
         inkscape:connector-curvature="0" /><path
         d="m -405.09,2873.95 c 130.324,-18.32 202.418,470.52 322.3244,416.2 119.8672,-54.28 -199.9184,-430.92 -100.2264,-516.81 99.7576,-85.84 424.699,286.37 496.203,175.89 C 384.715,2838.74 -87.9688,2694.8 -50.4922,2568.65 -13,2442.48 461.613,2579.93 462.012,2448.34 c 0.394,-131.61 -475.055,2.87 -511.7308,-123.53 -36.6601,-126.41 436.9098,-267.34 366.0938,-378.3 -70.777,-110.93 -398.0859,259.23 -497.273,172.74 -99.184,-86.51 223.0035,-461.11 103.4683,-516.14 -119.5583,-55.07 -194.7303,433.29 -324.9413,414.12 -130.223,-19.12 -61.688,-508.46 -192.012,-490.14 -130.344,18.32 70.438,469.81 -49.469,524.08 -119.882,54.32 -326.765,-394.37 -426.498,-308.52 -99.76,85.86 313.225,357.15 241.725,467.63 -71.5,110.49 -488.185,-155.11 -525.655,-28.97 -37.45,126.16 456.616,131.1 456.202,262.73 -0.418,131.61 -494.532,133.39 -457.822,259.8 36.66,126.37 454.998,-136.57 525.775,-25.62 70.816,110.93 -343.875,379.58 -244.695,466.08 99.187,86.5 308.945,-360.86 428.484,-305.83 119.524,55.07 -84.059,505.27 46.125,524.39 130.191,19.17 64.777,-470.59 195.121,-488.91"
         id="path20"
         style="fill:#2bff12;fill-opacity:1;fill-rule:nonzero;stroke:none"
         inkscape:connector-curvature="0" /><path
         d="m -405.09,2873.95 c 130.324,-18.32 202.418,470.52 322.3244,416.2 119.8672,-54.28 -199.9184,-430.92 -100.2264,-516.81 99.7576,-85.84 424.699,286.37 496.203,175.89 C 384.715,2838.74 -87.9688,2694.8 -50.4922,2568.65 -13,2442.48 461.613,2579.93 462.012,2448.34 c 0.394,-131.61 -475.055,2.87 -511.7308,-123.53 -36.6601,-126.41 436.9098,-267.34 366.0938,-378.3 -70.777,-110.93 -398.0859,259.23 -497.273,172.74 -99.184,-86.51 223.0035,-461.11 103.4683,-516.14 -119.5583,-55.07 -194.7303,433.29 -324.9413,414.12 -130.223,-19.12 -61.688,-508.46 -192.012,-490.14 -130.344,18.32 70.438,469.81 -49.469,524.08 -119.882,54.32 -326.765,-394.37 -426.498,-308.52 -99.76,85.86 313.225,357.15 241.725,467.63 -71.5,110.49 -488.185,-155.11 -525.655,-28.97 -37.45,126.16 456.616,131.1 456.202,262.73 -0.418,131.61 -494.532,133.39 -457.822,259.8 36.66,126.37 454.998,-136.57 525.775,-25.62 70.816,110.93 -343.875,379.58 -244.695,466.08 99.187,86.5 308.945,-360.86 428.484,-305.83 119.524,55.07 -84.059,505.27 46.125,524.39 130.191,19.17 64.777,-470.59 195.121,-488.91 z"
         id="path22"
         style="fill:none;stroke:#2bff12;stroke-width:14.85910034;stroke-linecap:butt;stroke-linejoin:miter;stroke-miterlimit:10;stroke-opacity:1;stroke-dasharray:none"
         inkscape:connector-curvature="0" /><path
         d="m 1148.35,1354.79 c 130.33,18.32 64.89,508.09 195.12,488.92 130.18,-19.12 -73.39,-469.33 46.11,-524.4 119.55,-55.03 329.31,392.34 428.5,305.84 99.19,-86.5 -315.51,-355.16 -244.71,-466.08 70.81,-110.96 489.15,152 525.81,25.62 36.66,-126.42 -457.44,-128.19 -457.86,-259.803 -0.39,-131.621 493.67,-136.559 456.19,-262.731 -37.46,-126.144 -454.12,139.461 -525.62,28.969 -71.5,-110.484 341.46,-381.773 241.72,-467.621 -99.74,-85.899 -306.62,362.828 -426.49,308.519 C 1267.2,477.742 1467.97,26.25 1337.64,7.93359 1207.3,-10.3867 1275.85,478.957 1145.63,498.078 1015.42,517.246 940.227,28.918 820.688,83.9531 701.133,138.984 1023.35,513.598 924.156,600.09 824.973,686.594 497.645,316.422 426.852,427.355 356.07,538.312 829.641,679.242 792.961,805.656 756.285,932.055 280.816,797.57 281.27,929.199 c 0.398,131.581 475.011,-5.871 512.464,120.291 37.496,126.15 -435.187,270.1 -363.683,380.58 71.5,110.5 396.445,-261.73 496.183,-175.88 99.706,85.88 -220.074,462.53 -100.207,516.8 119.864,54.31 191.983,-434.51 322.323,-416.2"
         id="path24"
         style="fill:#2bff12;fill-opacity:1;fill-rule:nonzero;stroke:none"
         inkscape:connector-curvature="0" /><path
         d="m 1148.35,1354.79 c 130.33,18.32 64.89,508.09 195.12,488.92 130.18,-19.12 -73.39,-469.33 46.11,-524.4 119.55,-55.03 329.31,392.34 428.5,305.84 99.19,-86.5 -315.51,-355.16 -244.71,-466.08 70.81,-110.96 489.15,152 525.81,25.62 36.66,-126.42 -457.44,-128.19 -457.86,-259.803 -0.39,-131.621 493.67,-136.559 456.19,-262.731 -37.46,-126.144 -454.12,139.461 -525.62,28.969 -71.5,-110.484 341.46,-381.773 241.72,-467.621 -99.74,-85.899 -306.62,362.828 -426.49,308.519 C 1267.2,477.742 1467.97,26.25 1337.64,7.93359 1207.3,-10.3867 1275.85,478.957 1145.63,498.078 1015.42,517.246 940.227,28.918 820.688,83.9531 701.133,138.984 1023.35,513.598 924.156,600.09 824.973,686.594 497.645,316.422 426.852,427.355 356.07,538.312 829.641,679.242 792.961,805.656 756.285,932.055 280.816,797.57 281.27,929.199 c 0.398,131.581 475.011,-5.871 512.464,120.291 37.496,126.15 -435.187,270.1 -363.683,380.58 71.5,110.5 396.445,-261.73 496.183,-175.88 99.706,85.88 -220.074,462.53 -100.207,516.8 119.864,54.31 191.983,-434.51 322.323,-416.2 z"
         id="path26"
         style="fill:none;stroke:#2bff12;stroke-width:14.85910034;stroke-linecap:butt;stroke-linejoin:miter;stroke-miterlimit:10;stroke-opacity:1;stroke-dasharray:none"
         inkscape:connector-curvature="0" /><path
         d="m 3256.5,2643.27 c 127.69,-31.83 250.49,446.78 364.05,380.23 113.55,-66.51 -243.86,-407.66 -153.69,-503.5 90.24,-95.8 452.31,240.41 511.88,123.05 59.56,-117.35 -425.59,-211.1 -401.5,-340.48 24.1,-129.39 510.48,-42.3 497.12,-173.21 -13.36,-130.94 -472.15,52.5 -521.84,-69.37 -49.66,-121.89 406.57,-311.55 324.55,-414.49 -81.99,-102.92 -368.81,299.42 -476.5,223.77 -107.68,-75.66 173.59,-481.9 48.95,-524.13 -124.65,-42.28 -148.37,451.27 -279.87,445.82 -131.5,-5.41 -114.49,-499.23 -242.19,-467.39 -127.72,31.84 119.16,459.87 5.58,526.39 -113.54,66.55 -366.2,-358.06 -456.41,-262.26 -90.24,95.82 348.84,322.45 289.28,439.8 -59.56,117.36 -501.72,-103.23 -525.8,26.14 -24.06,129.39 467.82,82.66 481.16,213.61 13.35,130.92 -477.88,184.35 -428.15,306.23 49.66,121.85 438.23,-183.39 520.22,-80.44 82.02,102.91 -302.32,413.45 -194.64,489.11 107.68,75.65 269.53,-391.19 394.17,-348.95 124.62,42.28 -30.79,511.28 100.68,516.7 131.49,5.46 15.23,-474.79 142.95,-506.63"
         id="path28"
         style="fill:#2bff12;fill-opacity:1;fill-rule:nonzero;stroke:none"
         inkscape:connector-curvature="0" /><path
         d="m 3256.5,2643.27 c 127.69,-31.83 250.49,446.78 364.05,380.23 113.55,-66.51 -243.86,-407.66 -153.69,-503.5 90.24,-95.8 452.31,240.41 511.88,123.05 59.56,-117.35 -425.59,-211.1 -401.5,-340.48 24.1,-129.39 510.48,-42.3 497.12,-173.21 -13.36,-130.94 -472.15,52.5 -521.84,-69.37 -49.66,-121.89 406.57,-311.55 324.55,-414.49 -81.99,-102.92 -368.81,299.42 -476.5,223.77 -107.68,-75.66 173.59,-481.9 48.95,-524.13 -124.65,-42.28 -148.37,451.27 -279.87,445.82 -131.5,-5.41 -114.49,-499.23 -242.19,-467.39 -127.72,31.84 119.16,459.87 5.58,526.39 -113.54,66.55 -366.2,-358.06 -456.41,-262.26 -90.24,95.82 348.84,322.45 289.28,439.8 -59.56,117.36 -501.72,-103.23 -525.8,26.14 -24.06,129.39 467.82,82.66 481.16,213.61 13.35,130.92 -477.88,184.35 -428.15,306.23 49.66,121.85 438.23,-183.39 520.22,-80.44 82.02,102.91 -302.32,413.45 -194.64,489.11 107.68,75.65 269.53,-391.19 394.17,-348.95 124.62,42.28 -30.79,511.28 100.68,516.7 131.49,5.46 15.23,-474.79 142.95,-506.63 z"
         id="path30"
         style="fill:none;stroke:#2bff12;stroke-width:14.85919952;stroke-linecap:butt;stroke-linejoin:miter;stroke-miterlimit:10;stroke-opacity:1;stroke-dasharray:none"
         inkscape:connector-curvature="0" /><path
         d="m 3514.02,4867.42 c 128.24,29.6 20.36,511.8 151.77,504.06 131.35,-7.71 -32.21,-473.94 91.64,-518.39 123.89,-44.4 293.87,419.55 400.21,342.02 106.35,-77.52 -283.35,-381.3 -203.16,-485.64 80.22,-104.35 474.05,194.06 521.58,71.35 47.53,-122.73 -444.53,-167.57 -433.48,-298.71 11.08,-131.16 503.71,-93.02 477.35,-221.98 -26.31,-128.93 -464.54,99.35 -526.14,-16.95 -61.59,-116.3 373.44,-350.56 281.57,-444.77 -91.89,-94.27 -337.08,334.73 -451.77,270.17 -114.72,-64.52 124.62,-496.79 -3.61,-526.4 -128.25,-29.61 -102.6,463.84 -234,471.54 -131.38,7.75 -163.73,-485.27 -287.6,-440.87 -123.91,44.4 164.44,445.67 58.08,523.2 -106.35,77.52 -400.16,-319.77 -480.36,-215.43 -80.18,104.37 379.3,286.04 331.75,408.77 -47.55,122.72 -509.49,-52.69 -520.51,78.48 -11.07,131.11 473.71,35.55 500.02,164.5 26.37,128.93 -457.07,231.13 -395.46,347.43 61.59,116.3 417.75,-226.18 509.62,-131.96 91.85,94.25 -259.55,441.58 -144.87,506.1 114.68,64.55 229.13,-416.13 357.37,-386.52"
         id="path32"
         style="fill:#2bff12;fill-opacity:1;fill-rule:nonzero;stroke:none"
         inkscape:connector-curvature="0" /><path
         d="m 3514.02,4867.42 c 128.24,29.6 20.36,511.8 151.77,504.06 131.35,-7.71 -32.21,-473.94 91.64,-518.39 123.89,-44.4 293.87,419.55 400.21,342.02 106.35,-77.52 -283.35,-381.3 -203.16,-485.64 80.22,-104.35 474.05,194.06 521.58,71.35 47.53,-122.73 -444.53,-167.57 -433.48,-298.71 11.08,-131.16 503.71,-93.02 477.35,-221.98 -26.31,-128.93 -464.54,99.35 -526.14,-16.95 -61.59,-116.3 373.44,-350.56 281.57,-444.77 -91.89,-94.27 -337.08,334.73 -451.77,270.17 -114.72,-64.52 124.62,-496.79 -3.61,-526.4 -128.25,-29.61 -102.6,463.84 -234,471.54 -131.38,7.75 -163.73,-485.27 -287.6,-440.87 -123.91,44.4 164.44,445.67 58.08,523.2 -106.35,77.52 -400.16,-319.77 -480.36,-215.43 -80.18,104.37 379.3,286.04 331.75,408.77 -47.55,122.72 -509.49,-52.69 -520.51,78.48 -11.07,131.11 473.71,35.55 500.02,164.5 26.37,128.93 -457.07,231.13 -395.46,347.43 61.59,116.3 417.75,-226.18 509.62,-131.96 91.85,94.25 -259.55,441.58 -144.87,506.1 114.68,64.55 229.13,-416.13 357.37,-386.52 z"
         id="path34"
         style="fill:none;stroke:#2bff12;stroke-width:14.85910034;stroke-linecap:butt;stroke-linejoin:miter;stroke-miterlimit:10;stroke-opacity:1;stroke-dasharray:none"
         inkscape:connector-curvature="0" /><path
         d="m 4218.18,504.688 c 128.24,29.605 20.36,511.792 151.77,504.062 131.35,-7.72 -32.21,-473.941 91.64,-518.391 123.89,-44.402 293.87,419.543 400.21,342.016 106.35,-77.523 -283.35,-381.301 -203.16,-485.633 80.22,-104.355 474.05,194.055 521.58,71.352 47.53,-122.739 -444.53,-167.578 -433.48,-298.719 11.08,-131.1602 503.71,-93.0156 477.35,-221.977 -26.31,-128.929 -464.54,99.35591 -526.14,-16.949 -61.59,-116.293 373.44,-350.562 281.57,-444.773 -91.89,-94.262 -337.08,334.73 -451.77,270.172 -114.72,-64.52 124.63,-496.805 -3.61,-526.41 -128.25,-29.602 -102.6,463.855 -234,471.554 -131.38,7.746 -163.73,-485.285 -287.6,-440.875 -123.91,44.403 164.44,445.668 58.08,523.192 -106.35,77.527 -400.16,-319.758 -480.36,-215.414 -80.18,104.363 379.3,286.027 331.75,408.7652 -47.55,122.7187 -509.49,-52.6952 -520.51,78.47652 -11.07,131.11728 473.71,35.54688 500.02,164.49628 26.37,128.941 -457.07,231.14 -395.47,347.437 61.6,116.301 417.76,-226.183 509.63,-131.961 91.85,94.246 -259.55,441.586 -144.87,506.094 114.68,64.547 229.13,-416.129 357.37,-386.515"
         id="path36"
         style="fill:#2bff12;fill-opacity:1;fill-rule:nonzero;stroke:none"
         inkscape:connector-curvature="0" /><path
         d="m 4218.18,504.688 c 128.24,29.605 20.36,511.792 151.77,504.062 131.35,-7.72 -32.21,-473.941 91.64,-518.391 123.89,-44.402 293.87,419.543 400.21,342.016 106.35,-77.523 -283.35,-381.301 -203.16,-485.633 80.22,-104.355 474.05,194.055 521.58,71.352 47.53,-122.739 -444.53,-167.578 -433.48,-298.719 11.08,-131.1602 503.71,-93.0156 477.35,-221.977 -26.31,-128.929 -464.54,99.35591 -526.14,-16.949 -61.59,-116.293 373.44,-350.562 281.57,-444.773 -91.89,-94.262 -337.08,334.73 -451.77,270.172 -114.72,-64.52 124.63,-496.805 -3.61,-526.41 -128.25,-29.602 -102.6,463.855 -234,471.554 -131.38,7.746 -163.73,-485.285 -287.6,-440.875 -123.91,44.403 164.44,445.668 58.08,523.192 -106.35,77.527 -400.16,-319.758 -480.36,-215.414 -80.18,104.363 379.3,286.027 331.75,408.7652 -47.55,122.7187 -509.49,-52.6952 -520.51,78.47652 -11.07,131.11728 473.71,35.54688 500.02,164.49628 26.37,128.941 -457.07,231.14 -395.47,347.437 61.6,116.301 417.76,-226.183 509.63,-131.961 91.85,94.246 -259.55,441.586 -144.87,506.094 114.68,64.547 229.13,-416.129 357.37,-386.515 z"
         id="path38"
         style="fill:none;stroke:#2bff12;stroke-width:14.85910034;stroke-linecap:butt;stroke-linejoin:miter;stroke-miterlimit:10;stroke-opacity:1;stroke-dasharray:none"
         inkscape:connector-curvature="0" /><path
         d="m 5362.69,3341.74 c 128.23,29.6 20.36,511.8 151.76,504.06 131.36,-7.71 -32.2,-473.94 91.64,-518.39 123.89,-44.4 293.87,419.54 400.22,342.03 106.35,-77.53 -283.36,-381.32 -203.16,-485.65 80.21,-104.35 474.05,194.06 521.58,71.35 47.53,-122.73 -444.53,-167.57 -433.48,-298.71 11.08,-131.16 503.71,-93.02 477.35,-221.98 -26.32,-128.93 -464.54,99.35 -526.15,-16.95 -61.59,-116.29 373.44,-350.56 281.57,-444.77 -91.88,-94.27 -337.08,334.73 -451.77,270.17 -114.71,-64.52 124.63,-496.8 -3.61,-526.4 -128.24,-29.61 -102.6,463.84 -233.99,471.54 -131.39,7.75 -163.74,-485.27 -287.61,-440.87 -123.9,44.4 164.44,445.67 58.08,523.19 -106.35,77.53 -400.16,-319.76 -480.35,-215.41 -80.19,104.36 379.3,286.02 331.75,408.76 -47.56,122.72 -509.5,-52.69 -520.52,78.48 -11.07,131.11 473.72,35.54 500.03,164.49 26.36,128.94 -457.07,231.14 -395.47,347.44 61.6,116.3 417.75,-226.18 509.63,-131.96 91.84,94.25 -259.55,441.59 -144.87,506.09 114.68,64.56 229.12,-416.12 357.37,-386.51"
         id="path40"
         style="fill:#2bff12;fill-opacity:1;fill-rule:nonzero;stroke:none"
         inkscape:connector-curvature="0" /><path
         d="m 5362.69,3341.74 c 128.23,29.6 20.36,511.8 151.76,504.06 131.36,-7.71 -32.2,-473.94 91.64,-518.39 123.89,-44.4 293.87,419.54 400.22,342.03 106.35,-77.53 -283.36,-381.32 -203.16,-485.65 80.21,-104.35 474.05,194.06 521.58,71.35 47.53,-122.73 -444.53,-167.57 -433.48,-298.71 11.08,-131.16 503.71,-93.02 477.35,-221.98 -26.32,-128.93 -464.54,99.35 -526.15,-16.95 -61.59,-116.29 373.44,-350.56 281.57,-444.77 -91.88,-94.27 -337.08,334.73 -451.77,270.17 -114.71,-64.52 124.63,-496.8 -3.61,-526.4 -128.24,-29.61 -102.6,463.84 -233.99,471.54 -131.39,7.75 -163.74,-485.27 -287.61,-440.87 -123.9,44.4 164.44,445.67 58.08,523.19 -106.35,77.53 -400.16,-319.76 -480.35,-215.41 -80.19,104.36 379.3,286.02 331.75,408.76 -47.56,122.72 -509.5,-52.69 -520.52,78.48 -11.07,131.11 473.72,35.54 500.03,164.49 26.36,128.94 -457.07,231.14 -395.47,347.44 61.6,116.3 417.75,-226.18 509.63,-131.96 91.84,94.25 -259.55,441.59 -144.87,506.09 114.68,64.56 229.12,-416.12 357.37,-386.51 z"
         id="path42"
         style="fill:none;stroke:#2bff12;stroke-width:14.85910034;stroke-linecap:butt;stroke-linejoin:miter;stroke-miterlimit:10;stroke-opacity:1;stroke-dasharray:none"
         inkscape:connector-curvature="0" /><path
         d="m 7099.93,1113.38 c 63.8,-115.095 497.59,121.51 526.37,-6.94 28.79,-128.389 -464.46,-99.67 -473.05,-230.975 -8.53,-131.332 484.29,-166.836 439.08,-290.434 -45.21,-123.601 -444.63,167.278 -522.83,61.426 -78.2,-105.879 317.21,-402.191 212.36,-481.703 -104.88,-79.5313 -283.61,381.117 -406.63,334.34 -123.02,-46.797 49.43,-509.8206 -81.8,-520.0315 -131.19,-10.2422 -32.54,473.9295 -161.32,501.0855 -128.76,27.149 -234.04,-455.6011 -349.94,-393.2535 -115.93,62.3395 228.86,416.2775 135.19,508.7385 -93.64,92.488 -443.2,-256.735 -507,-141.637 -63.82,115.121 417.59,226.488 388.78,354.918 -28.77,128.422 -511.61,23.629 -503.07,154.945 8.53,131.341 473.72,-35.23 518.93,88.371 45.22,123.6 -417.67,296.53 -339.48,402.38 78.22,105.84 379.5,-285.77 484.37,-206.23 104.87,79.54 -191.08,475.23 -68.03,521.98 122.99,46.78 164.75,-445.57 295.96,-435.32 131.21,10.2 96.2,503.07 224.97,475.92 128.77,-27.16 -102.27,-463.91 13.61,-526.26 115.91,-62.31 352.94,371.21 446.56,278.75 93.67,-92.43 -336.85,-334.93 -273.03,-450.07"
         id="path44"
         style="fill:#2bff12;fill-opacity:1;fill-rule:nonzero;stroke:none"
         inkscape:connector-curvature="0" /><path
         d="m 7099.93,1113.38 c 63.8,-115.095 497.59,121.51 526.37,-6.94 28.79,-128.389 -464.46,-99.67 -473.05,-230.975 -8.53,-131.332 484.29,-166.836 439.08,-290.434 -45.21,-123.601 -444.63,167.278 -522.83,61.426 -78.2,-105.879 317.21,-402.191 212.36,-481.703 -104.88,-79.5313 -283.61,381.117 -406.63,334.34 -123.02,-46.797 49.43,-509.8206 -81.8,-520.0315 -131.19,-10.2422 -32.54,473.9295 -161.32,501.0855 -128.76,27.149 -234.04,-455.6011 -349.94,-393.2535 -115.93,62.3395 228.86,416.2775 135.19,508.7385 -93.64,92.488 -443.2,-256.735 -507,-141.637 -63.82,115.121 417.59,226.488 388.78,354.918 -28.77,128.422 -511.61,23.629 -503.07,154.945 8.53,131.341 473.72,-35.23 518.93,88.371 45.22,123.6 -417.67,296.53 -339.48,402.38 78.22,105.84 379.5,-285.77 484.37,-206.23 104.87,79.54 -191.08,475.23 -68.03,521.98 122.99,46.78 164.75,-445.57 295.96,-435.32 131.21,10.2 96.2,503.07 224.97,475.92 128.77,-27.16 -102.27,-463.91 13.61,-526.26 115.91,-62.31 352.94,371.21 446.56,278.75 93.67,-92.43 -336.85,-334.93 -273.03,-450.07 z"
         id="path46"
         style="fill:none;stroke:#2bff12;stroke-width:14.85919952;stroke-linecap:butt;stroke-linejoin:miter;stroke-miterlimit:10;stroke-opacity:1;stroke-dasharray:none"
         inkscape:connector-curvature="0" /><path
         d="m 7160.96,5005.44 c 63.81,-115.1 497.59,121.5 526.38,-6.95 28.78,-128.39 -464.46,-99.67 -473.05,-230.97 -8.53,-131.34 484.29,-166.84 439.09,-290.44 -45.22,-123.6 -444.64,167.28 -522.83,61.43 -78.2,-105.88 317.2,-402.2 212.35,-481.71 -104.88,-79.52 -283.61,381.12 -406.63,334.34 -123.01,-46.8 49.43,-509.82 -81.79,-520.03 -131.2,-10.24 -32.55,473.93 -161.32,501.09 -128.77,27.15 -234.06,-455.61 -349.94,-393.26 -115.93,62.35 228.85,416.29 135.18,508.74 -93.65,92.49 -443.2,-256.73 -507.01,-141.63 -63.81,115.12 417.6,226.49 388.79,354.91 -28.77,128.43 -511.61,23.63 -503.07,154.95 8.52,131.33 473.73,-35.23 518.94,88.37 45.2,123.6 -417.67,296.53 -339.48,402.37 78.22,105.84 379.5,-285.76 484.37,-206.22 104.85,79.53 -191.09,475.23 -68.04,521.98 122.99,46.78 164.75,-445.57 295.96,-435.32 131.2,10.2 96.19,503.07 224.96,475.92 128.78,-27.16 -102.27,-463.91 13.63,-526.26 115.91,-62.31 352.93,371.21 446.55,278.75 93.67,-92.43 -336.84,-334.94 -273.04,-450.06"
         id="path48"
         style="fill:#2bff12;fill-opacity:1;fill-rule:nonzero;stroke:none"
         inkscape:connector-curvature="0" /><path
         d="m 7160.96,5005.44 c 63.81,-115.1 497.59,121.5 526.38,-6.95 28.78,-128.39 -464.46,-99.67 -473.05,-230.97 -8.53,-131.34 484.29,-166.84 439.09,-290.44 -45.22,-123.6 -444.64,167.28 -522.83,61.43 -78.2,-105.88 317.2,-402.2 212.35,-481.71 -104.88,-79.52 -283.61,381.12 -406.63,334.34 -123.01,-46.8 49.43,-509.82 -81.79,-520.03 -131.2,-10.24 -32.55,473.93 -161.32,501.09 -128.77,27.15 -234.06,-455.61 -349.94,-393.26 -115.93,62.35 228.85,416.29 135.18,508.74 -93.65,92.49 -443.2,-256.73 -507.01,-141.63 -63.81,115.12 417.6,226.49 388.79,354.91 -28.77,128.43 -511.61,23.63 -503.07,154.95 8.52,131.33 473.73,-35.23 518.94,88.37 45.2,123.6 -417.67,296.53 -339.48,402.37 78.22,105.84 379.5,-285.76 484.37,-206.22 104.85,79.53 -191.09,475.23 -68.04,521.98 122.99,46.78 164.75,-445.57 295.96,-435.32 131.2,10.2 96.19,503.07 224.96,475.92 128.78,-27.16 -102.27,-463.91 13.63,-526.26 115.91,-62.31 352.93,371.21 446.55,278.75 93.67,-92.43 -336.84,-334.94 -273.04,-450.06 z"
         id="path50"
         style="fill:none;stroke:#2bff12;stroke-width:14.85919952;stroke-linecap:butt;stroke-linejoin:miter;stroke-miterlimit:10;stroke-opacity:1;stroke-dasharray:none"
         inkscape:connector-curvature="0" /><path
         d="m 8633.95,2744.32 c 93.07,-93.06 444.82,253.95 507.89,138.4 63.08,-115.48 -418.99,-223.83 -391.06,-352.41 28.01,-128.61 511.52,-26.89 502.14,-158.16 -9.39,-131.27 -473.52,38.24 -519.51,-85.07 -45.98,-123.32 415.78,-299.17 336.91,-404.5 -78.9,-105.36 -377.68,288.18 -483.03,209.3 -105.36,-78.89 188.03,-476.45 64.71,-522.43 -123.29,-46.01 -161.92,446.6 -293.19,437.21 -131.27,-9.39 -99.4,-502.46 -227.99,-474.48 -128.63,27.98 105.25,463.24 -10.28,526.3 -115.51,63.09 -355.27,-368.96 -448.33,-275.9 -93.06,93.07 339,332.81 275.9,448.33 -63.06,115.52 -498.3,-118.31 -526.29,10.27 -28,128.6 465.09,96.72 474.47,228 9.39,131.27 -483.23,169.91 -437.23,293.21 46.01,123.3 443.56,-170.1 522.45,-64.72 78.87,105.35 -314.67,404.13 -209.28,482.99 105.32,78.88 281.18,-382.89 404.48,-336.87 123.31,45.98 -46.19,510.1 85.08,519.5 131.27,9.38 29.56,-474.14 158.14,-502.13 128.6,-27.94 236.95,454.11 352.43,391.04 115.51,-63.03 -231.48,-414.81 -138.41,-507.88"
         id="path52"
         style="fill:#2bff12;fill-opacity:1;fill-rule:nonzero;stroke:none"
         inkscape:connector-curvature="0" /><path
         d="m 8633.95,2744.32 c 93.07,-93.06 444.82,253.95 507.89,138.4 63.08,-115.48 -418.99,-223.83 -391.06,-352.41 28.01,-128.61 511.52,-26.89 502.14,-158.16 -9.39,-131.27 -473.52,38.24 -519.51,-85.07 -45.98,-123.32 415.78,-299.17 336.91,-404.5 -78.9,-105.36 -377.68,288.18 -483.03,209.3 -105.36,-78.89 188.03,-476.45 64.71,-522.43 -123.29,-46.01 -161.92,446.6 -293.19,437.21 -131.27,-9.39 -99.4,-502.46 -227.99,-474.48 -128.63,27.98 105.25,463.24 -10.28,526.3 -115.51,63.09 -355.27,-368.96 -448.33,-275.9 -93.06,93.07 339,332.81 275.9,448.33 -63.06,115.52 -498.3,-118.31 -526.29,10.27 -28,128.6 465.09,96.72 474.47,228 9.39,131.27 -483.23,169.91 -437.23,293.21 46.01,123.3 443.56,-170.1 522.45,-64.72 78.87,105.35 -314.67,404.13 -209.28,482.99 105.32,78.88 281.18,-382.89 404.48,-336.87 123.31,45.98 -46.19,510.1 85.08,519.5 131.27,9.38 29.56,-474.14 158.14,-502.13 128.6,-27.94 236.95,454.11 352.43,391.04 115.51,-63.03 -231.48,-414.81 -138.41,-507.88 z"
         id="path54"
         style="fill:none;stroke:#2bff12;stroke-width:14.85910034;stroke-linecap:butt;stroke-linejoin:miter;stroke-miterlimit:10;stroke-opacity:1;stroke-dasharray:none"
         inkscape:connector-curvature="0" /><path
         d="m 9315.14,110.348 c 93.06,-93.055 444.82,253.949 507.89,138.406 63.08,-115.481 -418.99,-223.8243 -391.06,-352.41 28,-128.598 511.55,-26.887 502.16,-158.164 -9.39,-131.266 -473.54,38.238 -519.54,-85.055 -45.98,-123.328 415.78,-299.184 336.91,-404.512 -78.89,-105.359 -377.67,288.176 -483.03,209.301 -105.36,-78.894 188.04,-476.454 64.71,-522.434 -123.29,-46 -161.91,446.602 -293.18,437.211 -131.28,-9.386 -99.41,-502.461 -228,-474.481 -128.62,27.98 105.25,463.243 -10.27,526.298 -115.52,63.097 -355.27,-368.953 -448.33,-275.895 -93.08,93.075 338.99,332.813 275.9,448.325 -63.07,115.519 -498.32,-118.309 -526.31,10.277 -28,128.597 465.1,96.715 474.49,227.992 9.39,131.2657 -483.23,169.91019 -437.24,293.215 46.01,123.297 443.57,-170.0939 522.46,-64.7228 78.86,105.3478 -314.69,404.1488 -209.29,483.0038 105.33,78.863 281.19,-382.898 404.48,-336.883 123.32,45.977 -46.19,510.106 85.08,519.492 131.26,9.391 29.55,-474.132 158.14,-502.121 128.6,-27.941 236.95,454.121 352.43,391.051 115.51,-63.039 -231.48,-414.816 -138.4,-507.894"
         id="path56"
         style="fill:#2bff12;fill-opacity:1;fill-rule:nonzero;stroke:none"
         inkscape:connector-curvature="0" /><path
         d="m 9315.14,110.348 c 93.06,-93.055 444.82,253.949 507.89,138.406 63.08,-115.481 -418.99,-223.8243 -391.06,-352.41 28,-128.598 511.55,-26.887 502.16,-158.164 -9.39,-131.266 -473.54,38.238 -519.54,-85.055 -45.98,-123.328 415.78,-299.184 336.91,-404.512 -78.89,-105.359 -377.67,288.176 -483.03,209.301 -105.36,-78.894 188.04,-476.454 64.71,-522.434 -123.29,-46 -161.91,446.602 -293.18,437.211 -131.28,-9.386 -99.41,-502.461 -228,-474.481 -128.62,27.98 105.25,463.243 -10.27,526.298 -115.52,63.097 -355.27,-368.953 -448.33,-275.895 -93.08,93.075 338.99,332.813 275.9,448.325 -63.07,115.519 -498.32,-118.309 -526.31,10.277 -28,128.597 465.1,96.715 474.49,227.992 9.39,131.2657 -483.23,169.91019 -437.24,293.215 46.01,123.297 443.57,-170.0939 522.46,-64.7228 78.86,105.3478 -314.69,404.1488 -209.29,483.0038 105.33,78.863 281.19,-382.898 404.48,-336.883 123.32,45.977 -46.19,510.106 85.08,519.492 131.26,9.391 29.55,-474.132 158.14,-502.121 128.6,-27.941 236.95,454.121 352.43,391.051 115.51,-63.039 -231.48,-414.816 -138.4,-507.894 z"
         id="path58"
         style="fill:none;stroke:#2bff12;stroke-width:14.85910034;stroke-linecap:butt;stroke-linejoin:miter;stroke-miterlimit:10;stroke-opacity:1;stroke-dasharray:none"
         inkscape:connector-curvature="0" /><path
         d="m 10379.7,4106.74 c 11.5,-131.1 504,-91.39 478.1,-220.44 -26,-129 -464.9,97.86 -526.1,-18.59 -61.2,-116.52 374.6,-349.41 282.9,-443.93 -91.5,-94.52 -338.1,333.67 -452.6,268.77 -114.5,-64.91 126.2,-496.44 -1.9,-526.43 -128.2,-29.99 -104.1,463.52 -235.55,470.83 -131.35,7.28 -162.17,-485.85 -286.2,-441.81 -124.01,44 163.07,446.2 56.44,523.38 -106.59,77.19 -399.13,-321.02 -479.64,-216.92 -80.55,104.11 378.39,287.21 330.42,409.76 -47.93,122.59 -509.31,-54.27 -520.78,76.84 -11.47,131.12 473.62,37.05 499.52,166.1 25.96,129.02 -457.76,229.67 -396.55,346.16 61.22,116.52 418.45,-224.86 510.02,-130.34 91.57,94.53 -260.96,440.78 -146.47,505.67 114.51,64.88 230.46,-415.42 358.62,-385.41 128.12,30.01 18.68,511.87 150.17,504.53 131.4,-7.29 -30.76,-474.05 93.3,-518.06 124,-44.05 292.5,420.45 399.1,343.27 106.6,-77.19 -282.2,-382.21 -201.6,-486.3 80.5,-104.07 473.4,195.57 521.3,73.02 48,-122.54 -443.9,-168.98 -432.5,-300.1"
         id="path60"
         style="fill:#2bff12;fill-opacity:1;fill-rule:nonzero;stroke:none"
         inkscape:connector-curvature="0" /><path
         d="m 10379.7,4106.74 c 11.5,-131.1 504,-91.39 478.1,-220.44 -26,-129 -464.9,97.86 -526.1,-18.59 -61.2,-116.52 374.6,-349.41 282.9,-443.93 -91.5,-94.52 -338.1,333.67 -452.6,268.77 -114.5,-64.91 126.2,-496.44 -1.9,-526.43 -128.2,-29.99 -104.1,463.52 -235.55,470.83 -131.35,7.28 -162.17,-485.85 -286.2,-441.81 -124.01,44 163.07,446.2 56.44,523.38 -106.59,77.19 -399.13,-321.02 -479.64,-216.92 -80.55,104.11 378.39,287.21 330.42,409.76 -47.93,122.59 -509.31,-54.27 -520.78,76.84 -11.47,131.12 473.62,37.05 499.52,166.1 25.96,129.02 -457.76,229.67 -396.55,346.16 61.22,116.52 418.45,-224.86 510.02,-130.34 91.57,94.53 -260.96,440.78 -146.47,505.67 114.51,64.88 230.46,-415.42 358.62,-385.41 128.12,30.01 18.68,511.87 150.17,504.53 131.4,-7.29 -30.76,-474.05 93.3,-518.06 124,-44.05 292.5,420.45 399.1,343.27 106.6,-77.19 -282.2,-382.21 -201.6,-486.3 80.5,-104.07 473.4,195.57 521.3,73.02 48,-122.54 -443.9,-168.98 -432.5,-300.1 z"
         id="path62"
         style="fill:none;stroke:#2bff12;stroke-width:14.85910034;stroke-linecap:butt;stroke-linejoin:miter;stroke-miterlimit:10;stroke-opacity:1;stroke-dasharray:none"
         inkscape:connector-curvature="0" /><path
         d="m 11067.7,1686.24 c 11.5,-131.1 504,-91.4 478.1,-220.44 -25.9,-129 -464.9,97.86 -526.1,-18.59 -61.2,-116.52 374.5,-349.41 282.9,-443.93 -91.5,-94.522 -338,333.67 -452.6,268.77 -114.5,-64.91 126.2,-496.437 -1.9,-526.433 -128.1,-29.984 -104.1,463.523 -235.5,470.833 -131.4,7.28 -162.2,-485.852 -286.2,-441.813 -124,44.008 163,446.193 56.4,523.383 -106.6,77.19 -399.08,-321.016 -479.67,-216.92 -80.49,104.11 378.37,287.21 330.47,409.76 -47.9,122.6 -509.31,-54.27 -520.79,76.84 -11.47,131.12 473.69,37.05 499.59,166.1 25.9,129.02 -457.84,229.67 -396.61,346.16 61.23,116.51 418.41,-224.86 510.01,-130.34 91.6,94.53 -260.9,440.78 -146.5,505.67 114.5,64.88 230.5,-415.41 358.6,-385.41 128.2,30.01 18.7,511.86 150.2,504.53 131.4,-7.29 -30.7,-474.06 93.3,-518.06 124,-44.05 292.5,420.45 399.1,343.27 106.6,-77.19 -282.2,-382.21 -201.6,-486.3 80.5,-104.07 473.4,195.56 521.3,73.02 48,-122.55 -443.9,-168.98 -432.5,-300.1"
         id="path64"
         style="fill:#2bff12;fill-opacity:1;fill-rule:nonzero;stroke:none"
         inkscape:connector-curvature="0" /><path
         d="m 11067.7,1686.24 c 11.5,-131.1 504,-91.4 478.1,-220.44 -25.9,-129 -464.9,97.86 -526.1,-18.59 -61.2,-116.52 374.5,-349.41 282.9,-443.93 -91.5,-94.522 -338,333.67 -452.6,268.77 -114.5,-64.91 126.2,-496.437 -1.9,-526.433 -128.1,-29.984 -104.1,463.523 -235.5,470.833 -131.4,7.28 -162.2,-485.852 -286.2,-441.813 -124,44.008 163,446.193 56.4,523.383 -106.6,77.19 -399.08,-321.016 -479.67,-216.92 -80.49,104.11 378.37,287.21 330.47,409.76 -47.9,122.6 -509.31,-54.27 -520.79,76.84 -11.47,131.12 473.69,37.05 499.59,166.1 25.9,129.02 -457.84,229.67 -396.61,346.16 61.23,116.51 418.41,-224.86 510.01,-130.34 91.6,94.53 -260.9,440.78 -146.5,505.67 114.5,64.88 230.5,-415.41 358.6,-385.41 128.2,30.01 18.7,511.86 150.2,504.53 131.4,-7.29 -30.7,-474.06 93.3,-518.06 124,-44.05 292.5,420.45 399.1,343.27 106.6,-77.19 -282.2,-382.21 -201.6,-486.3 80.5,-104.07 473.4,195.56 521.3,73.02 48,-122.55 -443.9,-168.98 -432.5,-300.1 z"
         id="path66"
         style="fill:none;stroke:#2bff12;stroke-width:14.85910034;stroke-linecap:butt;stroke-linejoin:miter;stroke-miterlimit:10;stroke-opacity:1;stroke-dasharray:none"
         inkscape:connector-curvature="0" /><path
         d="m 12813.4,432.656 c 84.6,-100.812 465.3,214.211 518,93.617 52.8,-120.539 -436.9,-186.457 -420.2,-316.992 16.6,-130.5505 507.2,-71.363 486.4,-201.32006 -20.8,-129.95694 -468.4,79.36326 -525,-39.46094 -56.5,-118.848 388.2,-334.273 300.4,-432.324 -87.8,-98.086 -351.1,319.992 -462.9,250.601 -111.9,-69.418 145.7,-491.023 18.9,-526.086 -126.9,-35.082 -122.4,459.016 -254,461.098 -131.6,2.082 -142.8,-491.887 -268.5,-452.805 -125.7,39.082 145.3,452.305 35.7,525.188 -109.6,72.93 -386.1,-336.578 -470.7,-235.77 -84.6,100.832 366.7,302.008 313.9,422.5746 -52.7,120.5784 -506.7,-74.4258 -523.4,56.1093 -16.6,130.5551 471.8,55.8164 492.5,185.7691 20.9,129.95 -466.5,211.375 -409.9,330.204 56.6,118.816 427,-208.11 514.8,-110.016 87.7,98.086 -278.3,430.039 -166.4,499.406 111.8,69.401 246.8,-405.937 373.6,-370.847 126.9,35.05 -1.5,512.188 130,510.108 131.6,-2.1 -11.8,-474.909 113.8,-513.999 125.7,-39.043 275.6,431.738 385.2,358.848 109.5,-72.871 -266.8,-393.071 -182.2,-493.903"
         id="path68"
         style="fill:#2bff12;fill-opacity:1;fill-rule:nonzero;stroke:none"
         inkscape:connector-curvature="0" /><path
         d="m 12813.4,432.656 c 84.6,-100.812 465.3,214.211 518,93.617 52.8,-120.539 -436.9,-186.457 -420.2,-316.992 16.6,-130.5505 507.2,-71.363 486.4,-201.32006 -20.8,-129.95694 -468.4,79.36326 -525,-39.46094 -56.5,-118.848 388.2,-334.273 300.4,-432.324 -87.8,-98.086 -351.1,319.992 -462.9,250.601 -111.9,-69.418 145.7,-491.023 18.9,-526.086 -126.9,-35.082 -122.4,459.016 -254,461.098 -131.6,2.082 -142.8,-491.887 -268.5,-452.805 -125.7,39.082 145.3,452.305 35.7,525.188 -109.6,72.93 -386.1,-336.578 -470.7,-235.77 -84.6,100.832 366.7,302.008 313.9,422.5746 -52.7,120.5784 -506.7,-74.4258 -523.4,56.1093 -16.6,130.5551 471.8,55.8164 492.5,185.7691 20.9,129.95 -466.5,211.375 -409.9,330.204 56.6,118.816 427,-208.11 514.8,-110.016 87.7,98.086 -278.3,430.039 -166.4,499.406 111.8,69.401 246.8,-405.937 373.6,-370.847 126.9,35.05 -1.5,512.188 130,510.108 131.6,-2.1 -11.8,-474.909 113.8,-513.999 125.7,-39.043 275.6,431.738 385.2,358.848 109.5,-72.871 -266.8,-393.071 -182.2,-493.903 z"
         id="path70"
         style="fill:none;stroke:#2bff12;stroke-width:14.85910034;stroke-linecap:butt;stroke-linejoin:miter;stroke-miterlimit:10;stroke-opacity:1;stroke-dasharray:none"
         inkscape:connector-curvature="0" /><path
         d="m 12657.1,5050.23 c 20.6,-129.98 509.1,-56.01 492.2,-186.56 -16.8,-130.49 -470.5,65.2 -523.5,-55.25 -52.9,-120.5 398,-322.42 313.3,-423.1 -84.8,-100.68 -360.7,309.27 -470.3,236.54 -109.7,-72.74 160.5,-486.43 34.8,-525.28 -125.7,-38.86 -136.1,455.13 -267.7,453.25 -131.7,-1.9 -128,-495.98 -254.8,-460.7 -126.8,35.25 131.5,456.48 19.8,526.05 -111.7,69.56 -375.7,-348.08 -463.3,-249.86 -87.7,98.24 357.4,312.91 301,431.83 -56.3,118.94 -504.3,-89.67 -524.9,40.31 -20.5,130.01 469.9,70 486.7,200.54 17,130.52 -472.6,197.18 -419.7,317.66 53,120.5 433.1,-195.12 517.9,-94.44 84.7,100.68 -291.1,421.49 -181.4,494.21 109.8,72.71 258.9,-398.32 384.7,-359.45 125.6,38.88 -17,511.92 114.5,513.77 131.6,1.9 2.4,-475.04 129.3,-510.28 126.7,-35.29 262.4,439.83 374.2,370.27 111.7,-69.56 -254.8,-400.96 -167.3,-499.18 87.7,-98.2 458.6,228.11 515,109.21 56.4,-118.9 -431.1,-199.54 -410.5,-329.54"
         id="path72"
         style="fill:#2bff12;fill-opacity:1;fill-rule:nonzero;stroke:none"
         inkscape:connector-curvature="0" /><path
         d="m 12657.1,5050.23 c 20.6,-129.98 509.1,-56.01 492.2,-186.56 -16.8,-130.49 -470.5,65.2 -523.5,-55.25 -52.9,-120.5 398,-322.42 313.3,-423.1 -84.8,-100.68 -360.7,309.27 -470.3,236.54 -109.7,-72.74 160.5,-486.43 34.8,-525.28 -125.7,-38.86 -136.1,455.13 -267.7,453.25 -131.7,-1.9 -128,-495.98 -254.8,-460.7 -126.8,35.25 131.5,456.48 19.8,526.05 -111.7,69.56 -375.7,-348.08 -463.3,-249.86 -87.7,98.24 357.4,312.91 301,431.83 -56.3,118.94 -504.3,-89.67 -524.9,40.31 -20.5,130.01 469.9,70 486.7,200.54 17,130.52 -472.6,197.18 -419.7,317.66 53,120.5 433.1,-195.12 517.9,-94.44 84.7,100.68 -291.1,421.49 -181.4,494.21 109.8,72.71 258.9,-398.32 384.7,-359.45 125.6,38.88 -17,511.92 114.5,513.77 131.6,1.9 2.4,-475.04 129.3,-510.28 126.7,-35.29 262.4,439.83 374.2,370.27 111.7,-69.56 -254.8,-400.96 -167.3,-499.18 87.7,-98.2 458.6,228.11 515,109.21 56.4,-118.9 -431.1,-199.54 -410.5,-329.54 z"
         id="path74"
         style="fill:none;stroke:#2bff12;stroke-width:14.85910034;stroke-linecap:butt;stroke-linejoin:miter;stroke-miterlimit:10;stroke-opacity:1;stroke-dasharray:none"
         inkscape:connector-curvature="0" /><path
         d="m 15418.6,4101.82 c 40.6,-125.16 511.6,24.32 515.4,-107.26 3.7,-131.53 -474.9,-9.21 -508.5,-136.47 -33.4,-127.29 443.6,-256.18 375.7,-368.88 -68,-112.69 -404.6,249.05 -501.6,160.06 -97,-89.01 234.7,-455.33 116.5,-513.37 -118,-58.06 -205.7,428.22 -335.3,405.79 -129.7,-22.48 -48.7,-509.89 -179.5,-494.88 -130.8,14.99 58.5,471.44 -62.8,522.67 -121.2,51.22 -316.7,-402.58 -418.5,-319.26 -101.9,83.31 304.1,364.97 229.8,473.59 -74.3,108.67 -484.1,-167.45 -524.7,-42.29 -40.7,125.19 453.1,142.64 449.3,274.21 -3.8,131.56 -497.7,120.82 -464.3,248.09 33.4,127.3 458.4,-124.96 526.4,-12.27 67.8,112.7 -353.5,370.78 -256.6,459.76 97,88.97 318.1,-352.93 436.2,-294.86 118.1,58.07 -96.9,502.96 32.8,525.37 129.7,22.46 76.7,-468.81 207.4,-483.78 130.8,-15.03 190.4,475.47 311.7,424.24 121.2,-51.23 -188.9,-435.87 -87,-519.19 101.9,-83.28 417.2,297.05 491.5,188.43 74.2,-108.61 -394.6,-264.52 -353.9,-389.7"
         id="path76"
         style="fill:#2bff12;fill-opacity:1;fill-rule:nonzero;stroke:none"
         inkscape:connector-curvature="0" /><path
         d="m 15418.6,4101.82 c 40.6,-125.16 511.6,24.32 515.4,-107.26 3.7,-131.53 -474.9,-9.21 -508.5,-136.47 -33.4,-127.29 443.6,-256.18 375.7,-368.88 -68,-112.69 -404.6,249.05 -501.6,160.06 -97,-89.01 234.7,-455.33 116.5,-513.37 -118,-58.06 -205.7,428.22 -335.3,405.79 -129.7,-22.48 -48.7,-509.89 -179.5,-494.88 -130.8,14.99 58.5,471.44 -62.8,522.67 -121.2,51.22 -316.7,-402.58 -418.5,-319.26 -101.9,83.31 304.1,364.97 229.8,473.59 -74.3,108.67 -484.1,-167.45 -524.7,-42.29 -40.7,125.19 453.1,142.64 449.3,274.21 -3.8,131.56 -497.7,120.82 -464.3,248.09 33.4,127.3 458.4,-124.96 526.4,-12.27 67.8,112.7 -353.5,370.78 -256.6,459.76 97,88.97 318.1,-352.93 436.2,-294.86 118.1,58.07 -96.9,502.96 32.8,525.37 129.7,22.46 76.7,-468.81 207.4,-483.78 130.8,-15.03 190.4,475.47 311.7,424.24 121.2,-51.23 -188.9,-435.87 -87,-519.19 101.9,-83.28 417.2,297.05 491.5,188.43 74.2,-108.61 -394.6,-264.52 -353.9,-389.7 z"
         id="path78"
         style="fill:none;stroke:#2bff12;stroke-width:14.85919952;stroke-linecap:butt;stroke-linejoin:miter;stroke-miterlimit:10;stroke-opacity:1;stroke-dasharray:none"
         inkscape:connector-curvature="0" /><path
         d="m 15242.8,1140.83 c 20.6,-129.99 509.2,-56.01 492.3,-186.564 -16.9,-130.496 -470.6,65.204 -523.5,-55.25 -53,-120.496 398,-322.414 313.3,-423.102 -84.8,-100.676 -360.6,309.266 -470.3,236.551 -109.8,-72.746 160.4,-486.43 34.8,-525.285 -125.8,-38.868 -136.2,455.132 -267.8,453.254 -131.6,-1.907 -127.9,-495.993 -254.7,-460.707 -126.8,35.257 131.5,456.48 19.8,526.046 -111.7,69.567 -375.8,-348.07 -463.4,-249.847 -87.6,98.23 357.5,312.898 301,431.816 -56.3,118.938 -504.2,-89.664 -524.8,40.32 -20.6,129.998 469.9,69.997 486.7,200.528 16.9,130.53 -472.7,197.19 -419.7,317.67 52.9,120.5 433.1,-195.12 517.9,-94.45 84.7,100.69 -291.1,421.5 -181.4,494.23 109.7,72.7 258.8,-398.34 384.6,-359.46 125.7,38.88 -17,511.92 114.6,513.77 131.6,1.9 2.4,-475.04 129.2,-510.29 126.8,-35.29 262.4,439.84 374.2,370.27 111.7,-69.56 -254.8,-400.95 -167.2,-499.18 87.6,-98.19 458.6,228.12 515,109.21 56.3,-118.89 -431.1,-199.53 -410.6,-329.53"
         id="path80"
         style="fill:#2bff12;fill-opacity:1;fill-rule:nonzero;stroke:none"
         inkscape:connector-curvature="0" /><path
         d="m 15242.8,1140.83 c 20.6,-129.99 509.2,-56.01 492.3,-186.564 -16.9,-130.496 -470.6,65.204 -523.5,-55.25 -53,-120.496 398,-322.414 313.3,-423.102 -84.8,-100.676 -360.6,309.266 -470.3,236.551 -109.8,-72.746 160.4,-486.43 34.8,-525.285 -125.8,-38.868 -136.2,455.132 -267.8,453.254 -131.6,-1.907 -127.9,-495.993 -254.7,-460.707 -126.8,35.257 131.5,456.48 19.8,526.046 -111.7,69.567 -375.8,-348.07 -463.4,-249.847 -87.6,98.23 357.5,312.898 301,431.816 -56.3,118.938 -504.2,-89.664 -524.8,40.32 -20.6,129.998 469.9,69.997 486.7,200.528 16.9,130.53 -472.7,197.19 -419.7,317.67 52.9,120.5 433.1,-195.12 517.9,-94.45 84.7,100.69 -291.1,421.5 -181.4,494.23 109.7,72.7 258.8,-398.34 384.6,-359.46 125.7,38.88 -17,511.92 114.6,513.77 131.6,1.9 2.4,-475.04 129.2,-510.29 126.8,-35.29 262.4,439.84 374.2,370.27 111.7,-69.56 -254.8,-400.95 -167.2,-499.18 87.6,-98.19 458.6,228.12 515,109.21 56.3,-118.89 -431.1,-199.53 -410.6,-329.53 z"
         id="path82"
         style="fill:none;stroke:#2bff12;stroke-width:14.85910034;stroke-linecap:butt;stroke-linejoin:miter;stroke-miterlimit:10;stroke-opacity:1;stroke-dasharray:none"
         inkscape:connector-curvature="0" /><path
         d="m 13466,2882.25 c 40.7,-125.16 511.7,24.32 515.4,-107.25 3.7,-131.54 -474.9,-9.23 -508.5,-136.47 -33.4,-127.3 443.6,-256.19 375.7,-368.89 -68,-112.7 -404.6,249.04 -501.5,160.06 -97,-89 234.6,-455.32 116.5,-513.37 -118.1,-58.05 -205.6,428.23 -335.3,405.78 -129.8,-22.46 -48.8,-509.89 -179.6,-494.87 -130.7,14.98 58.5,471.43 -62.8,522.66 -121.1,51.23 -316.6,-402.56 -418.5,-319.26 -101.9,83.33 304.1,364.97 229.8,473.6 -74.3,108.66 -484,-167.45 -524.7,-42.28 -40.7,125.17 453.1,142.64 449.4,274.2 -3.8,131.56 -497.7,120.81 -464.3,248.09 33.4,127.3 458.3,-124.97 526.3,-12.27 67.9,112.7 -353.5,370.77 -256.6,459.76 97.1,88.97 318.1,-352.93 436.2,-294.85 118.1,58.06 -96.9,502.95 32.8,525.37 129.7,22.45 76.7,-468.81 207.4,-483.8 130.8,-15.02 190.4,475.47 311.7,424.25 121.2,-51.23 -188.9,-435.88 -87,-519.18 101.9,-83.29 417.3,297.04 491.5,188.42 74.3,-108.62 -394.6,-264.52 -353.9,-389.7"
         id="path84"
         style="fill:#2bff12;fill-opacity:1;fill-rule:nonzero;stroke:none"
         inkscape:connector-curvature="0" /><path
         d="m 13466,2882.25 c 40.7,-125.16 511.7,24.32 515.4,-107.25 3.7,-131.54 -474.9,-9.23 -508.5,-136.47 -33.4,-127.3 443.6,-256.19 375.7,-368.89 -68,-112.7 -404.6,249.04 -501.5,160.06 -97,-89 234.6,-455.32 116.5,-513.37 -118.1,-58.05 -205.6,428.23 -335.3,405.78 -129.8,-22.46 -48.8,-509.89 -179.6,-494.87 -130.7,14.98 58.5,471.43 -62.8,522.66 -121.1,51.23 -316.6,-402.56 -418.5,-319.26 -101.9,83.33 304.1,364.97 229.8,473.6 -74.3,108.66 -484,-167.45 -524.7,-42.28 -40.7,125.17 453.1,142.64 449.4,274.2 -3.8,131.56 -497.7,120.81 -464.3,248.09 33.4,127.3 458.3,-124.97 526.3,-12.27 67.9,112.7 -353.5,370.77 -256.6,459.76 97.1,88.97 318.1,-352.93 436.2,-294.85 118.1,58.06 -96.9,502.95 32.8,525.37 129.7,22.45 76.7,-468.81 207.4,-483.8 130.8,-15.02 190.4,475.47 311.7,424.25 121.2,-51.23 -188.9,-435.88 -87,-519.18 101.9,-83.29 417.3,297.04 491.5,188.42 74.3,-108.62 -394.6,-264.52 -353.9,-389.7 z"
         id="path86"
         style="fill:none;stroke:#2bff12;stroke-width:14.85919952;stroke-linecap:butt;stroke-linejoin:miter;stroke-miterlimit:10;stroke-opacity:1;stroke-dasharray:none"
         inkscape:connector-curvature="0" /></g></g></svg>