<?xml version="1.0" encoding="UTF-8" standalone="no"?>
<!-- Created with Inkscape (http://www.inkscape.org/) -->

<svg
   xmlns:dc="http://purl.org/dc/elements/1.1/"
   xmlns:cc="http://creativecommons.org/ns#"
   xmlns:rdf="http://www.w3.org/1999/02/22-rdf-syntax-ns#"
   xmlns:svg="http://www.w3.org/2000/svg"
   xmlns="http://www.w3.org/2000/svg"
   version="1.1"
   width="164.95"
   height="27.450001"
   id="svg2"
   xml:space="preserve"><metadata
     id="metadata8"><rdf:RDF><cc:Work
         rdf:about=""><dc:format>image/svg+xml</dc:format><dc:type
           rdf:resource="http://purl.org/dc/dcmitype/StillImage" /><dc:title></dc:title></cc:Work></rdf:RDF></metadata><defs
     id="defs6"><clipPath
       id="clipPath18"><path
         d="M 0,219.551 0,0 l 1319.64,0 0,219.551 -1319.64,0 z"
         id="path20" /></clipPath></defs><g
     transform="matrix(1.25,0,0,-1.25,0,27.45)"
     id="g10"><g
       transform="scale(0.1,0.1)"
       id="g12"><g
         id="g14"><g
           clip-path="url(#clipPath18)"
           id="g16"><path
             d="m 68.8477,2.66406 -57.6329,0 C 4.41797,2.66406 0,6.78516 0,11.2227 L 0,209.777 c 0,5.918 5.61328,8.887 11.2148,8.887 l 50.8321,0 c 32.5,0 59.9731,-9.18 59.9731,-50.527 0,-24.825 -9.747,-41.973 -25.1059,-48.477 18.3129,-7.383 30.4299,-20.0975 30.4299,-50.2342 l 0,-5.293 C 127.344,18.8984 101.641,2.66406 68.8477,2.66406 M 24.8164,109.324 l 0,-84.2342 39.8906,0 c 23.6328,0 37.828,12.4375 37.828,40.4844 l 0,5.043 c 0,28.375 -14.1952,38.7068 -37.828,38.7068 l -39.8906,0 m 0,86.879 0,-66.191 36.9336,0 c 23.9297,0 35.4531,10.039 35.4531,34.57 0,23.926 -14.7617,31.621 -36.3437,31.621 l -36.043,0"
             id="path22"
             style="fill:#2a2627;fill-opacity:1;fill-rule:nonzero;stroke:none" /><path
             d="m 369.977,0.890625 c -35.758,0 -63.528,17.421875 -63.528,64.390575 l 0,88.9488 c 0,46.993 28.067,64.434 62.93,64.434 38.711,0 64.426,-21.582 64.426,-52.91 0,-9.453 -4.442,-12.109 -12.41,-12.109 -6.508,0 -12.125,2.363 -12.415,8.574 -2.371,20.39 -13.3,33.984 -39.003,33.984 -24.231,0 -38.715,-13.32 -38.715,-41.973 l 0,-88.9488 c 0,-28.6484 14.484,-41.9531 38.715,-41.9531 24.222,0 39.003,13.3047 39.003,41.9531 l 0,30.1602 -35.164,0 c -5.617,0 -8.566,4.9996 -8.566,10.3316 0,5.039 2.949,10.348 8.566,10.348 l 51.414,0 c 5.61,0 8.575,-4.449 8.575,-9.156 l 0,-41.6838 c 0,-46.9687 -28.075,-64.390575 -63.828,-64.390575"
             id="path24"
             style="fill:#2a2627;fill-opacity:1;fill-rule:nonzero;stroke:none" /><path
             d="m 670.691,1.77734 c -4.144,0 -7.695,1.75782 -8.879,5.60547 l -12.988,44.02339 -77.715,0 -13.004,-44.02339 c -1.187,-3.84765 -4.726,-5.60547 -9.16,-5.60547 -6.504,0 -15.066,4.1211 -15.066,10.31246 l 0.59,2.3633 60.273,196.5039 c 1.785,5.918 8.567,8.594 15.371,8.594 6.785,0 13.582,-2.969 15.367,-8.594 l 60.278,-196.5039 0.297,-2.0508 c 0,-5.91792 -8.278,-10.62496 -15.364,-10.62496 M 610.113,182.91 576.723,71.7969 l 66.187,0 -32.797,111.1131"
             id="path26"
             style="fill:#2a2627;fill-opacity:1;fill-rule:nonzero;stroke:none" /><path
             d="m 919.816,0 c -35.757,0 -63.527,17.4219 -63.527,64.4141 l 0,88.9259 c 0,46.992 28.066,64.414 62.93,64.414 38.711,0 64.426,-21.563 64.426,-52.891 0,-9.453 -4.446,-12.109 -12.415,-12.109 -6.503,0 -12.128,2.363 -12.414,8.555 -2.371,20.41 -13.3,33.984 -39,33.984 -24.23,0 -38.718,-13.301 -38.718,-41.953 l 0,-88.9259 c 0,-28.6719 14.488,-41.9727 38.718,-41.9727 24.227,0 39,13.3008 39,41.9727 l 0,30.1367 -35.16,0 c -5.621,0 -8.566,5 -8.566,10.3322 0,5.039 2.945,10.351 8.566,10.351 l 51.41,0 c 5.618,0 8.579,-4.433 8.579,-9.16 l 0,-41.6599 C 983.645,17.4219 955.566,0 919.816,0"
             id="path28"
             style="fill:#2a2627;fill-opacity:1;fill-rule:nonzero;stroke:none" /><path
             d="m 1147.07,1.77734 c -4.15,0 -7.7,1.75782 -8.87,5.60547 l -13.01,44.02339 -77.71,0 -12.99,-44.02339 c -1.19,-3.84765 -4.73,-5.60547 -9.18,-5.60547 -6.49,0 -15.06,4.1211 -15.06,10.31246 l 0.59,2.3633 60.27,196.5039 c 1.78,5.918 8.57,8.594 15.39,8.594 6.78,0 13.57,-2.969 15.35,-8.594 l 60.27,-196.5039 0.3,-2.0508 c 0,-5.91792 -8.28,-10.62496 -15.35,-10.62496 M 1086.5,182.91 1053.1,71.7969 l 66.17,0 -32.77,111.1131"
             id="path30"
             style="fill:#2a2627;fill-opacity:1;fill-rule:nonzero;stroke:none" /><path
             d="m 1311.07,1.77734 -105.2,0 c -5.6,0 -11.23,2.92969 -11.23,8.84766 l 0,198.281 c 0,5.899 5.63,8.848 11.23,8.848 l 105.2,0 c 5.9,0 8.57,-5.606 8.57,-10.918 0,-6.211 -3.26,-11.543 -8.57,-11.543 l -91.6,0 0,-75.039 46.09,0 c 5.31,0 8.58,-5.02 8.58,-10.625 0,-4.746 -2.66,-10.0782 -8.58,-10.0782 l -46.09,0 0,-75.3516 91.6,0 c 5.31,0 8.57,-5.2734 8.57,-11.5234 0,-5.29299 -2.67,-10.89846 -8.57,-10.89846"
             id="path32"
             style="fill:#2a2627;fill-opacity:1;fill-rule:nonzero;stroke:none" /><path
             d="m 810.23,12.9883 c 0,-6.21096 5.04,-11.21096 11.235,-11.21096 6.203,0 11.226,5 11.226,11.21096 0,6.2109 -5.023,11.2109 -11.226,11.2109 -6.195,0 -11.235,-5 -11.235,-11.2109"
             id="path34"
             style="fill:#1dff54;fill-opacity:1;fill-rule:nonzero;stroke:none" /><path
             d="m 781.754,12.9883 c 0,-6.21096 5.031,-11.21096 11.23,-11.21096 6.204,0 11.235,5 11.235,11.21096 0,6.2109 -5.031,11.2109 -11.235,11.2109 -6.199,0 -11.23,-5 -11.23,-11.2109"
             id="path36"
             style="fill:#1dff54;fill-opacity:1;fill-rule:nonzero;stroke:none" /><path
             d="m 752.559,12.9883 c 0,-6.21096 5.019,-11.21096 11.226,-11.21096 6.203,0 11.227,5 11.227,11.21096 0,6.2109 -5.024,11.2109 -11.227,11.2109 -6.207,0 -11.226,-5 -11.226,-11.2109"
             id="path38"
             style="fill:#1dff54;fill-opacity:1;fill-rule:nonzero;stroke:none" /><path
             d="m 730.688,0.859375 c -6.208,0 -12.418,2.968745 -12.418,8.886715 l 0,198.57391 c 0,5.899 6.21,8.555 12.418,8.555 6.203,0 12.414,-2.656 12.414,-8.555 l 0,-198.57391 c 0,-5.91797 -6.211,-8.886715 -12.414,-8.886715"
             id="path40"
             style="fill:#2a2627;fill-opacity:1;fill-rule:nonzero;stroke:none" /><path
             d="m 243.977,190.949 c -5.829,2.11 -8.817,8.555 -6.707,14.375 2.128,5.84 8.566,8.828 14.394,6.719 5.82,-2.109 8.828,-8.555 6.703,-14.375 -2.113,-5.84 -8.558,-8.848 -14.39,-6.719"
             id="path42"
             style="fill:#1dff54;fill-opacity:1;fill-rule:nonzero;stroke:none" /><path
             d="m 221.602,127.043 c -5.45,1.973 -11.637,1.719 -14.082,-2.832 L 169.867,20.7891 c -2.015,-5.5625 2.809,-10.4453 8.645,-12.57426 5.621,-2.05468 12.078,-1.40625 14.363,3.60936 l 37.457,102.9138 c 2.027,5.567 -2.906,10.176 -8.73,12.305"
             id="path44"
             style="fill:#231f20;fill-opacity:1;fill-rule:nonzero;stroke:none" /><path
             d="m 239.504,175.539 c -5.438,1.973 -11.633,1.699 -14.078,-2.832 L 187.777,69.2695 c -2.019,-5.5703 2.809,-10.4297 8.633,-12.5586 5.625,-2.0547 12.09,-1.4297 14.371,3.6094 L 248.23,163.234 c 2.028,5.567 -2.898,10.176 -8.726,12.305"
             id="path46"
             style="fill:#231f20;fill-opacity:1;fill-rule:nonzero;stroke:none" /></g></g></g></g></svg>