<?xml version="1.0" encoding="UTF-8" standalone="no"?>
<!-- Created with Inkscape (http://www.inkscape.org/) -->

<svg
   xmlns:dc="http://purl.org/dc/elements/1.1/"
   xmlns:cc="http://creativecommons.org/ns#"
   xmlns:rdf="http://www.w3.org/1999/02/22-rdf-syntax-ns#"
   xmlns:svg="http://www.w3.org/2000/svg"
   xmlns="http://www.w3.org/2000/svg"
   version="1.1"
   width="98.220123"
   height="61.699249"
   id="svg2"
   xml:space="preserve"><metadata
     id="metadata8"><rdf:RDF><cc:Work
         rdf:about=""><dc:format>image/svg+xml</dc:format><dc:type
           rdf:resource="http://purl.org/dc/dcmitype/StillImage" /><dc:title></dc:title></cc:Work></rdf:RDF></metadata><defs
     id="defs6"><clipPath
       id="clipPath18"><path
         d="M 0,1048.8 0,0 l 1048.8,0 0,1048.8 -1048.8,0 z"
         id="path20" /></clipPath></defs><g
     transform="matrix(1.25,0,0,-1.25,-16.44,96.400375)"
     id="g10"><g
       transform="scale(0.1,0.1)"
       id="g12"><g
         id="g14"><g
           clip-path="url(#clipPath18)"
           id="g16"><path
             d="m 216.328,555.207 -57.633,0 c -6.797,0 -11.215,4.121 -11.215,8.555 l 0,198.554 c 0,5.918 5.618,8.887 11.215,8.887 l 50.832,0 c 32.5,0 59.977,-9.18 59.977,-50.527 0,-24.824 -9.746,-41.973 -25.109,-48.477 18.308,-7.383 30.429,-20.097 30.429,-50.234 l 0,-5.293 c 0,-45.234 -25.703,-61.465 -58.496,-61.465 m -44.031,106.66 0,-84.238 39.891,0 c 23.632,0 37.828,12.441 37.828,40.488 l 0,5.039 c 0,28.379 -14.196,38.711 -37.828,38.711 l -39.891,0 m 0,86.875 0,-66.191 36.933,0 c 23.93,0 35.454,10.039 35.454,34.57 0,23.926 -14.762,31.621 -36.344,31.621 l -36.043,0"
             id="path22"
             style="fill:#2a2627;fill-opacity:1;fill-rule:nonzero;stroke:none" /><path
             d="m 517.457,553.43 c -35.758,0 -63.527,17.422 -63.527,64.394 l 0,88.946 c 0,46.992 28.066,64.433 62.929,64.433 38.711,0 64.426,-21.582 64.426,-52.91 0,-9.453 -4.437,-12.109 -12.406,-12.109 -6.512,0 -12.133,2.363 -12.418,8.574 -2.367,20.39 -13.301,33.984 -39.004,33.984 -24.23,0 -38.719,-13.32 -38.719,-41.972 l 0,-88.946 c 0,-28.652 14.489,-41.953 38.719,-41.953 24.223,0 39.004,13.301 39.004,41.953 l 0,30.156 -35.16,0 c -5.621,0 -8.571,5 -8.571,10.332 0,5.04 2.95,10.352 8.571,10.352 l 51.41,0 c 5.609,0 8.574,-4.453 8.574,-9.16 l 0,-41.68 c 0,-46.972 -28.07,-64.394 -63.828,-64.394"
             id="path24"
             style="fill:#2a2627;fill-opacity:1;fill-rule:nonzero;stroke:none" /><path
             d="m 268.336,279.387 c -4.148,0 -7.695,1.758 -8.883,5.605 l -12.988,44.024 -77.715,0 -13.004,-44.024 c -1.184,-3.847 -4.726,-5.605 -9.16,-5.605 -6.504,0 -15.066,4.121 -15.066,10.312 l 0.589,2.363 60.274,196.504 c 1.789,5.918 8.57,8.594 15.371,8.594 6.785,0 13.586,-2.969 15.367,-8.594 l 60.277,-196.504 0.297,-2.05 c 0,-5.918 -8.273,-10.625 -15.359,-10.625 m -60.582,181.133 -33.391,-111.114 66.188,0 -32.797,111.114"
             id="path26"
             style="fill:#2a2627;fill-opacity:1;fill-rule:nonzero;stroke:none" /><path
             d="m 517.457,277.609 c -35.758,0 -63.527,17.422 -63.527,64.414 l 0,88.926 c 0,46.992 28.066,64.414 62.929,64.414 38.711,0 64.426,-21.562 64.426,-52.89 0,-9.453 -4.437,-12.11 -12.406,-12.11 -6.512,0 -12.133,2.364 -12.418,8.555 -2.367,20.41 -13.301,33.984 -39.004,33.984 -24.23,0 -38.719,-13.3 -38.719,-41.953 l 0,-88.926 c 0,-28.671 14.489,-41.972 38.719,-41.972 24.223,0 39.004,13.301 39.004,41.972 l 0,30.137 -35.16,0 c -5.621,0 -8.571,5 -8.571,10.332 0,5.039 2.95,10.352 8.571,10.352 l 51.41,0 c 5.609,0 8.574,-4.434 8.574,-9.16 l 0,-41.661 c 0,-46.992 -28.07,-64.414 -63.828,-64.414"
             id="path28"
             style="fill:#2a2627;fill-opacity:1;fill-rule:nonzero;stroke:none" /><path
             d="m 744.703,279.387 c -4.141,0 -7.683,1.758 -8.867,5.605 l -13,44.024 -77.715,0 -12.996,-44.024 c -1.184,-3.847 -4.727,-5.605 -9.164,-5.605 -6.5,0 -15.07,4.121 -15.07,10.312 l 0.593,2.363 60.27,196.504 c 1.781,5.918 8.582,8.594 15.383,8.594 6.777,0 13.582,-2.969 15.367,-8.594 l 60.262,-196.504 0.293,-2.05 c 0,-5.918 -8.274,-10.625 -15.356,-10.625 m -60.566,181.133 -33.399,-111.114 66.18,0 -32.781,111.114"
             id="path30"
             style="fill:#2a2627;fill-opacity:1;fill-rule:nonzero;stroke:none" /><path
             d="m 908.711,279.387 -105.191,0 c -5.614,0 -11.223,2.929 -11.223,8.847 l 0,198.282 c 0,5.898 5.609,8.847 11.223,8.847 l 105.191,0 c 5.902,0 8.57,-5.605 8.57,-10.918 0,-6.211 -3.258,-11.543 -8.57,-11.543 l -91.606,0 0,-75.039 46.11,0 c 5.308,0 8.566,-5.019 8.566,-10.625 0,-4.746 -2.664,-10.078 -8.566,-10.078 l -46.11,0 0,-75.351 91.606,0 c 5.312,0 8.57,-5.274 8.57,-11.524 0,-5.293 -2.668,-10.898 -8.57,-10.898"
             id="path32"
             style="fill:#2a2627;fill-opacity:1;fill-rule:nonzero;stroke:none" /><path
             d="m 407.871,290.598 c 0,-6.211 5.039,-11.211 11.234,-11.211 6.204,0 11.227,5 11.227,11.211 0,6.211 -5.023,11.211 -11.227,11.211 -6.195,0 -11.234,-5 -11.234,-11.211"
             id="path34"
             style="fill:#1dff54;fill-opacity:1;fill-rule:nonzero;stroke:none" /><path
             d="m 379.395,290.598 c 0,-6.211 5.035,-11.211 11.23,-11.211 6.207,0 11.234,5 11.234,11.211 0,6.211 -5.027,11.211 -11.234,11.211 -6.195,0 -11.23,-5 -11.23,-11.211"
             id="path36"
             style="fill:#1dff54;fill-opacity:1;fill-rule:nonzero;stroke:none" /><path
             d="m 350.199,290.598 c 0,-6.211 5.02,-11.211 11.227,-11.211 6.207,0 11.226,5 11.226,11.211 0,6.211 -5.019,11.211 -11.226,11.211 -6.207,0 -11.227,-5 -11.227,-11.211"
             id="path38"
             style="fill:#1dff54;fill-opacity:1;fill-rule:nonzero;stroke:none" /><path
             d="m 328.328,278.469 c -6.203,0 -12.414,2.969 -12.414,8.886 l 0,198.575 c 0,5.898 6.211,8.554 12.414,8.554 6.203,0 12.414,-2.656 12.414,-8.554 l 0,-198.575 c 0,-5.917 -6.211,-8.886 -12.414,-8.886"
             id="path40"
             style="fill:#2a2627;fill-opacity:1;fill-rule:nonzero;stroke:none" /><path
             d="m 391.453,743.488 c -5.824,2.11 -8.812,8.555 -6.703,14.375 2.129,5.84 8.566,8.828 14.395,6.719 5.82,-2.109 8.828,-8.555 6.707,-14.375 -2.118,-5.84 -8.563,-8.848 -14.399,-6.719"
             id="path42"
             style="fill:#1dff54;fill-opacity:1;fill-rule:nonzero;stroke:none" /><path
             d="m 369.082,679.582 c -5.449,1.973 -11.637,1.719 -14.082,-2.832 L 317.348,573.332 c -2.016,-5.566 2.808,-10.449 8.644,-12.578 5.617,-2.051 12.078,-1.406 14.363,3.613 l 37.457,102.91 c 2.028,5.567 -2.906,10.176 -8.73,12.305"
             id="path44"
             style="fill:#231f20;fill-opacity:1;fill-rule:nonzero;stroke:none" /><path
             d="m 386.98,728.078 c -5.433,1.973 -11.628,1.699 -14.074,-2.832 L 335.258,621.809 c -2.02,-5.567 2.808,-10.43 8.633,-12.559 5.625,-2.051 12.089,-1.426 14.371,3.613 l 37.453,102.91 c 2.023,5.567 -2.903,10.176 -8.735,12.305"
             id="path46"
             style="fill:#231f20;fill-opacity:1;fill-rule:nonzero;stroke:none" /></g></g></g></g></svg>